<?xml version="1.0" encoding="UTF-8" standalone="no"?>
<!-- Created with Inkscape (http://www.inkscape.org/) -->

<svg
   width="120.57478mm"
   height="82.812813mm"
   viewBox="0 0 120.57478 82.812813"
   version="1.1"
   id="svg5"
   xml:space="preserve"
   inkscape:version="1.2 (dc2aedaf03, 2022-05-15)"
   sodipodi:docname="sccala_logo.svg"
   xmlns:inkscape="http://www.inkscape.org/namespaces/inkscape"
   xmlns:sodipodi="http://sodipodi.sourceforge.net/DTD/sodipodi-0.dtd"
   xmlns="http://www.w3.org/2000/svg"
   xmlns:svg="http://www.w3.org/2000/svg"><sodipodi:namedview
     id="namedview7"
     pagecolor="#ffffff"
     bordercolor="#666666"
     borderopacity="1.0"
     inkscape:showpageshadow="2"
     inkscape:pageopacity="0.0"
     inkscape:pagecheckerboard="0"
     inkscape:deskcolor="#d1d1d1"
     inkscape:document-units="mm"
     showgrid="false"
     inkscape:zoom="1.157808"
     inkscape:cx="203.4016"
     inkscape:cy="297.54502"
     inkscape:window-width="1916"
     inkscape:window-height="1055"
     inkscape:window-x="0"
     inkscape:window-y="0"
     inkscape:window-maximized="1"
     inkscape:current-layer="layer1"><inkscape:grid
       type="xygrid"
       id="grid2718"
       originx="-56.575629"
       originy="-5.1555365" /></sodipodi:namedview><defs
     id="defs2"><rect
       x="83.338249"
       y="292.40314"
       width="111.44608"
       height="221.72321"
       id="rect3500" /><rect
       x="83.338249"
       y="292.40314"
       width="111.44608"
       height="221.72321"
       id="rect3500-3" /><rect
       x="83.338249"
       y="292.40314"
       width="111.44608"
       height="221.72321"
       id="rect3500-7" /><rect
       x="83.338249"
       y="292.40314"
       width="111.44608"
       height="221.72321"
       id="rect3500-35" /><rect
       x="83.338249"
       y="292.40314"
       width="111.44608"
       height="221.72321"
       id="rect3500-9" /><rect
       x="83.338249"
       y="292.40314"
       width="111.44608"
       height="221.72321"
       id="rect3500-3-2" /></defs><g
     inkscape:label="Layer 1"
     inkscape:groupmode="layer"
     id="layer1"
     transform="translate(-56.575632,-5.1555366)"><text
       xml:space="preserve"
       transform="matrix(0.26458333,0,0,0.26458333,31.935015,-45.702614)"
       id="text3498"
       style="font-size:192px;line-height:1.25;font-family:sans-serif;white-space:pre;shape-inside:url(#rect3500)"><tspan
         x="83.337891"
         y="467.09838"
         id="tspan5611">S</tspan></text><text
       xml:space="preserve"
       transform="matrix(0.26458333,0,0,0.26458333,95.904564,-45.702614)"
       id="text3498-5"
       style="font-size:192px;line-height:1.25;font-family:sans-serif;white-space:pre;shape-inside:url(#rect3500-7);display:inline"><tspan
         x="83.337891"
         y="467.09838"
         id="tspan5613">a</tspan></text><text
       xml:space="preserve"
       transform="matrix(0.26458333,0,0,0.26458333,120.65414,-45.194614)"
       id="text3498-62"
       style="font-size:192px;line-height:1.25;font-family:sans-serif;white-space:pre;shape-inside:url(#rect3500-35);display:inline"><tspan
         x="83.337891"
         y="467.09838"
         id="tspan5615">l</tspan></text><text
       xml:space="preserve"
       transform="matrix(0.26458333,0,0,0.26458333,130.7166,-45.702614)"
       id="text3498-1"
       style="font-size:192px;line-height:1.25;font-family:sans-serif;white-space:pre;shape-inside:url(#rect3500-9);display:inline"><tspan
         x="83.337891"
         y="467.09838"
         id="tspan5617">a</tspan></text><g
       id="g5101"
       transform="translate(-31.391276,8.5043699)"
       style="fill:#d0d0d0;fill-opacity:1;stroke-width:1.2;stroke-dasharray:none"><rect
         style="fill:#d0d0d0;fill-opacity:1;stroke:#000000;stroke-width:1.28852;stroke-dasharray:none"
         id="rect3787"
         width="4.4669709"
         height="65.558914"
         x="147.99091"
         y="25.416252"
         transform="matrix(1,0,-0.49773917,0.86732676,0,0)" /><rect
         style="fill:#d0d0d0;fill-opacity:1;stroke:#000000;stroke-width:1.28852;stroke-dasharray:none"
         id="rect3787-4"
         width="4.4669709"
         height="65.558914"
         x="173.19394"
         y="25.416252"
         transform="matrix(1,0,-0.49773917,0.86732676,0,0)" /><rect
         style="fill:#d0d0d0;fill-opacity:1;stroke:#000000;stroke-width:1.29004;stroke-dasharray:none"
         id="rect5005-9"
         width="20.659037"
         height="4.4413033"
         x="152.81029"
         y="48.509914"
         transform="matrix(1,0,-0.50129135,0.86527856,0,0)" /><rect
         style="fill:#d0d0d0;fill-opacity:1;stroke:#000000;stroke-width:1.29004;stroke-dasharray:none"
         id="rect5005-9-7"
         width="20.659037"
         height="4.4413033"
         x="152.71107"
         y="35.852184"
         transform="matrix(1,0,-0.50129135,0.86527856,0,0)" /><rect
         style="fill:#d0d0d0;fill-opacity:1;stroke:#000000;stroke-width:1.29004;stroke-dasharray:none"
         id="rect5005-9-1"
         width="20.659037"
         height="4.4413033"
         x="152.75635"
         y="61.167641"
         transform="matrix(1,0,-0.50129135,0.86527856,0,0)" /><rect
         style="fill:#d0d0d0;fill-opacity:1;stroke:#000000;stroke-width:1.29004;stroke-dasharray:none"
         id="rect5005-9-1-0"
         width="20.659037"
         height="4.4413033"
         x="152.81621"
         y="73.825371"
         transform="matrix(1,0,-0.50129135,0.86527856,0,0)" /></g><g
       id="g5174"
       transform="matrix(0.0799818,0,0,0.0799818,111.13094,5.1555366)"><g
         id="g5115">
	<path
   d="m 55.093,110.761 6.544,17.743 c 0.246,0.668 0.882,1.111 1.593,1.111 0.711,0 1.347,-0.443 1.593,-1.111 l 6.544,-17.743 C 76.664,96.397 87.987,85.074 102.35,79.778 l 17.743,-6.544 c 0.667,-0.246 1.11,-0.882 1.11,-1.593 0,-0.711 -0.443,-1.347 -1.11,-1.593 L 102.349,63.504 C 87.986,58.207 76.663,46.885 71.367,32.522 L 64.823,14.779 c -0.246,-0.667 -0.882,-1.11 -1.593,-1.11 -0.711,0 -1.347,0.443 -1.593,1.11 L 55.093,32.522 C 49.796,46.885 38.474,58.207 24.11,63.504 L 6.366,70.048 c -0.667,0.246 -1.11,0.882 -1.11,1.593 0,0.711 0.443,1.347 1.11,1.593 l 17.743,6.544 c 14.364,5.296 25.687,16.618 30.984,30.983 z"
   id="path5103" />
	<path
   d="m 198.948,185.703 -17.742,-6.543 c -14.364,-5.297 -25.687,-16.619 -30.983,-30.982 l -6.544,-17.743 c -0.246,-0.667 -0.882,-1.11 -1.593,-1.11 -0.711,0 -1.347,0.443 -1.593,1.11 l -6.544,17.742 c -5.297,14.364 -16.62,25.686 -30.983,30.983 l -17.743,6.543 c -0.667,0.246 -1.11,0.882 -1.11,1.593 0,0.711 0.443,1.347 1.11,1.593 l 17.744,6.545 c 14.363,5.297 25.685,16.619 30.982,30.982 l 6.544,17.744 c 0.246,0.667 0.882,1.11 1.593,1.11 0.711,0 1.347,-0.443 1.593,-1.11 l 6.544,-17.744 c 5.297,-14.363 16.619,-25.686 30.982,-30.982 l 17.744,-6.545 c 0.667,-0.246 1.11,-0.882 1.11,-1.593 0,-0.711 -0.444,-1.347 -1.111,-1.593 z"
   id="path5105" />
	<path
   d="m 290.778,109.811 -12.059,-4.447 c -9.761,-3.6 -17.456,-11.295 -21.056,-21.056 L 253.216,72.25 c -0.168,-0.453 -0.6,-0.755 -1.083,-0.755 -0.483,0 -0.915,0.302 -1.083,0.755 l -4.446,12.057 c -3.6,9.762 -11.295,17.457 -21.057,21.057 l -12.058,4.447 c -0.453,0.167 -0.755,0.599 -0.755,1.082 0,0.483 0.302,0.916 0.755,1.083 l 12.059,4.446 c 9.761,3.601 17.456,11.296 21.056,21.057 l 4.446,12.06 c 0.168,0.453 0.6,0.755 1.083,0.755 0.483,0 0.915,-0.302 1.083,-0.755 l 4.447,-12.06 c 3.6,-9.762 11.294,-17.456 21.056,-21.056 l 12.059,-4.447 c 0.453,-0.167 0.755,-0.6 0.755,-1.083 0,-0.483 -0.302,-0.915 -0.755,-1.082 z"
   id="path5107" />
	<path
   d="m 261.567,268.552 -8.412,-3.103 c -6.809,-2.511 -12.176,-7.878 -14.687,-14.686 l -3.103,-8.41 c -0.116,-0.316 -0.418,-0.526 -0.755,-0.526 -0.337,0 -0.639,0.21 -0.755,0.526 l -3.103,8.41 c -2.511,6.809 -7.878,12.176 -14.686,14.686 l -8.412,3.103 c -0.316,0.116 -0.526,0.418 -0.526,0.755 0,0.337 0.21,0.639 0.526,0.755 l 8.411,3.103 c 6.81,2.511 12.177,7.879 14.688,14.688 l 3.103,8.411 c 0.116,0.316 0.418,0.526 0.755,0.526 0.337,0 0.639,-0.21 0.755,-0.526 l 3.103,-8.411 c 2.511,-6.809 7.878,-12.177 14.688,-14.688 l 8.411,-3.103 c 0.316,-0.116 0.526,-0.418 0.526,-0.755 0,-0.337 -0.21,-0.639 -0.527,-0.755 z"
   id="path5109" />
	<path
   d="m 199.533,26.726 -8.412,-3.102 C 184.312,21.113 178.945,15.746 176.435,8.937 l -3.103,-8.41 C 173.216,0.21 172.914,0 172.577,0 c -0.337,0 -0.639,0.21 -0.755,0.526 l -3.102,8.409 c -2.511,6.809 -7.879,12.177 -14.688,14.688 l -8.412,3.102 c -0.316,0.116 -0.526,0.418 -0.526,0.755 0,0.337 0.21,0.639 0.526,0.755 l 8.411,3.103 c 6.81,2.511 12.178,7.879 14.689,14.689 l 3.102,8.41 c 0.116,0.316 0.418,0.526 0.755,0.526 0.337,0 0.639,-0.21 0.755,-0.526 l 3.103,-8.411 c 2.511,-6.81 7.878,-12.177 14.688,-14.687 l 8.411,-3.103 c 0.316,-0.116 0.526,-0.418 0.526,-0.755 0,-0.337 -0.21,-0.639 -0.527,-0.755 z"
   id="path5111" />
	<path
   d="m 96.359,251.26 -10.58,-3.9 c -8.564,-3.158 -15.316,-9.91 -18.476,-18.475 l -3.901,-10.58 c -0.147,-0.397 -0.526,-0.662 -0.95,-0.662 -0.424,0 -0.803,0.265 -0.95,0.662 l -3.901,10.579 c -3.158,8.565 -9.91,15.317 -18.476,18.476 l -10.578,3.9 c -0.399,0.146 -0.662,0.526 -0.662,0.95 0,0.424 0.264,0.804 0.662,0.95 l 10.579,3.902 c 8.564,3.158 15.316,9.91 18.475,18.475 l 3.901,10.58 c 0.147,0.398 0.526,0.662 0.95,0.662 0.424,0 0.804,-0.264 0.95,-0.662 l 3.902,-10.581 c 3.158,-8.564 9.909,-15.315 18.474,-18.474 l 10.581,-3.902 c 0.398,-0.146 0.662,-0.526 0.662,-0.95 0,-0.424 -0.263,-0.804 -0.662,-0.95 z"
   id="path5113" />
</g><g
         id="g5117">
</g><g
         id="g5119">
</g><g
         id="g5121">
</g><g
         id="g5123">
</g><g
         id="g5125">
</g><g
         id="g5127">
</g><g
         id="g5129">
</g><g
         id="g5131">
</g><g
         id="g5133">
</g><g
         id="g5135">
</g><g
         id="g5137">
</g><g
         id="g5139">
</g><g
         id="g5141">
</g><g
         id="g5143">
</g><g
         id="g5145">
</g></g><text
       xml:space="preserve"
       transform="matrix(0.26458333,0,0,0.26458333,60.604075,-41.825878)"
       id="text3498-6"
       style="font-size:192px;line-height:1.25;font-family:sans-serif;white-space:pre;shape-inside:url(#rect3500-3)"><tspan
         x="83.337891"
         y="467.09838"
         id="tspan5619">c</tspan></text><text
       xml:space="preserve"
       transform="matrix(0.26458333,0,0,0.26458333,73.408887,-59.122477)"
       id="text3498-6-7"
       style="font-size:192px;line-height:1.25;font-family:sans-serif;white-space:pre;shape-inside:url(#rect3500-3-2)"><tspan
         x="83.337891"
         y="467.09838"
         id="tspan5621">c</tspan></text></g></svg>
